<mxfile host="Electron" agent="Mozilla/5.0 (Windows NT 10.0; Win64; x64) AppleWebKit/537.36 (KHTML, like Gecko) draw.io/27.0.5 Chrome/134.0.6998.205 Electron/35.3.0 Safari/537.36" version="27.0.5">
  <diagram name="Page-1" id="EVo79O1Vl5bR7eSaTk0s">
    <mxGraphModel dx="2252" dy="828" grid="1" gridSize="10" guides="1" tooltips="1" connect="1" arrows="1" fold="1" page="1" pageScale="1" pageWidth="827" pageHeight="1169" math="0" shadow="0">
      <root>
        <mxCell id="0" />
        <mxCell id="1" parent="0" />
        <mxCell id="fMWfn83Go68coCgBGwn0-6" style="rounded=0;orthogonalLoop=1;jettySize=auto;html=1;endArrow=none;startFill=0;dashed=1;strokeWidth=2;" edge="1" parent="1" source="fMWfn83Go68coCgBGwn0-1">
          <mxGeometry relative="1" as="geometry">
            <mxPoint x="-125" y="490" as="targetPoint" />
          </mxGeometry>
        </mxCell>
        <mxCell id="fMWfn83Go68coCgBGwn0-1" value="" style="shape=umlActor;verticalLabelPosition=bottom;verticalAlign=top;html=1;outlineConnect=0;" vertex="1" parent="1">
          <mxGeometry x="-140" y="350" width="30" height="60" as="geometry" />
        </mxCell>
        <mxCell id="fMWfn83Go68coCgBGwn0-7" style="rounded=0;orthogonalLoop=1;jettySize=auto;html=1;dashed=1;endArrow=none;startFill=0;strokeWidth=2;" edge="1" parent="1" source="fMWfn83Go68coCgBGwn0-41">
          <mxGeometry relative="1" as="geometry">
            <mxPoint x="105" y="490" as="targetPoint" />
          </mxGeometry>
        </mxCell>
        <mxCell id="fMWfn83Go68coCgBGwn0-2" value="Tour Planner GUI" style="rounded=0;whiteSpace=wrap;html=1;" vertex="1" parent="1">
          <mxGeometry x="40" y="360" width="130" height="40" as="geometry" />
        </mxCell>
        <mxCell id="fMWfn83Go68coCgBGwn0-8" style="rounded=0;orthogonalLoop=1;jettySize=auto;html=1;exitX=0.5;exitY=1;exitDx=0;exitDy=0;dashed=1;endArrow=none;startFill=0;strokeWidth=2;" edge="1" parent="1" source="fMWfn83Go68coCgBGwn0-42">
          <mxGeometry relative="1" as="geometry">
            <mxPoint x="335" y="490" as="targetPoint" />
          </mxGeometry>
        </mxCell>
        <mxCell id="fMWfn83Go68coCgBGwn0-3" value="Tour Planner Backend" style="rounded=0;whiteSpace=wrap;html=1;" vertex="1" parent="1">
          <mxGeometry x="270" y="360" width="130" height="40" as="geometry" />
        </mxCell>
        <mxCell id="fMWfn83Go68coCgBGwn0-9" style="rounded=0;orthogonalLoop=1;jettySize=auto;html=1;dashed=1;endArrow=none;startFill=0;targetPerimeterSpacing=0;strokeWidth=2;" edge="1" parent="1" source="fMWfn83Go68coCgBGwn0-44">
          <mxGeometry relative="1" as="geometry">
            <mxPoint x="565" y="490" as="targetPoint" />
          </mxGeometry>
        </mxCell>
        <mxCell id="fMWfn83Go68coCgBGwn0-4" value="Database" style="rounded=0;whiteSpace=wrap;html=1;" vertex="1" parent="1">
          <mxGeometry x="500" y="360" width="130" height="40" as="geometry" />
        </mxCell>
        <mxCell id="fMWfn83Go68coCgBGwn0-10" value="" style="endArrow=classic;html=1;rounded=0;" edge="1" parent="1">
          <mxGeometry width="50" height="50" relative="1" as="geometry">
            <mxPoint x="-120" y="440" as="sourcePoint" />
            <mxPoint x="100" y="440" as="targetPoint" />
          </mxGeometry>
        </mxCell>
        <mxCell id="fMWfn83Go68coCgBGwn0-11" value="delete Tour/Tour Log" style="edgeLabel;html=1;align=center;verticalAlign=middle;resizable=0;points=[];" vertex="1" connectable="0" parent="fMWfn83Go68coCgBGwn0-10">
          <mxGeometry x="-0.0182" y="-4" relative="1" as="geometry">
            <mxPoint y="-14" as="offset" />
          </mxGeometry>
        </mxCell>
        <mxCell id="fMWfn83Go68coCgBGwn0-12" value="" style="endArrow=classic;html=1;rounded=0;" edge="1" parent="1">
          <mxGeometry width="50" height="50" relative="1" as="geometry">
            <mxPoint x="110" y="450" as="sourcePoint" />
            <mxPoint x="330" y="450" as="targetPoint" />
          </mxGeometry>
        </mxCell>
        <mxCell id="fMWfn83Go68coCgBGwn0-13" value="forward request" style="edgeLabel;html=1;align=center;verticalAlign=middle;resizable=0;points=[];" vertex="1" connectable="0" parent="fMWfn83Go68coCgBGwn0-12">
          <mxGeometry x="-0.0182" y="-4" relative="1" as="geometry">
            <mxPoint y="-14" as="offset" />
          </mxGeometry>
        </mxCell>
        <mxCell id="fMWfn83Go68coCgBGwn0-43" value="" style="rounded=0;orthogonalLoop=1;jettySize=auto;html=1;exitX=0.5;exitY=1;exitDx=0;exitDy=0;dashed=1;endArrow=none;startFill=0;strokeWidth=2;" edge="1" parent="1" source="fMWfn83Go68coCgBGwn0-3" target="fMWfn83Go68coCgBGwn0-42">
          <mxGeometry relative="1" as="geometry">
            <mxPoint x="335" y="600" as="targetPoint" />
            <mxPoint x="335" y="400" as="sourcePoint" />
          </mxGeometry>
        </mxCell>
        <mxCell id="fMWfn83Go68coCgBGwn0-42" value="" style="rounded=0;whiteSpace=wrap;html=1;fillColor=#f8cecc;strokeColor=#b85450;" vertex="1" parent="1">
          <mxGeometry x="330" y="450" width="10" height="10" as="geometry" />
        </mxCell>
        <mxCell id="fMWfn83Go68coCgBGwn0-45" value="" style="rounded=0;orthogonalLoop=1;jettySize=auto;html=1;dashed=1;endArrow=none;startFill=0;targetPerimeterSpacing=0;strokeWidth=2;" edge="1" parent="1" source="fMWfn83Go68coCgBGwn0-4" target="fMWfn83Go68coCgBGwn0-44">
          <mxGeometry relative="1" as="geometry">
            <mxPoint x="565" y="600" as="targetPoint" />
            <mxPoint x="565" y="400" as="sourcePoint" />
          </mxGeometry>
        </mxCell>
        <mxCell id="fMWfn83Go68coCgBGwn0-44" value="" style="rounded=0;whiteSpace=wrap;html=1;fillColor=#e1d5e7;strokeColor=#9673a6;" vertex="1" parent="1">
          <mxGeometry x="560" y="460" width="10" height="10" as="geometry" />
        </mxCell>
        <mxCell id="fMWfn83Go68coCgBGwn0-14" value="" style="endArrow=classic;html=1;rounded=0;" edge="1" parent="1">
          <mxGeometry width="50" height="50" relative="1" as="geometry">
            <mxPoint x="340" y="460" as="sourcePoint" />
            <mxPoint x="560" y="460" as="targetPoint" />
          </mxGeometry>
        </mxCell>
        <mxCell id="fMWfn83Go68coCgBGwn0-15" value="delete entries" style="edgeLabel;html=1;align=center;verticalAlign=middle;resizable=0;points=[];" vertex="1" connectable="0" parent="fMWfn83Go68coCgBGwn0-14">
          <mxGeometry x="-0.0182" y="-4" relative="1" as="geometry">
            <mxPoint y="-14" as="offset" />
          </mxGeometry>
        </mxCell>
        <mxCell id="fMWfn83Go68coCgBGwn0-46" value="" style="rounded=0;orthogonalLoop=1;jettySize=auto;html=1;dashed=1;endArrow=none;startFill=0;strokeWidth=2;" edge="1" parent="1" source="fMWfn83Go68coCgBGwn0-2" target="fMWfn83Go68coCgBGwn0-41">
          <mxGeometry relative="1" as="geometry">
            <mxPoint x="105" y="600" as="targetPoint" />
            <mxPoint x="105" y="400" as="sourcePoint" />
          </mxGeometry>
        </mxCell>
        <mxCell id="fMWfn83Go68coCgBGwn0-41" value="" style="rounded=0;whiteSpace=wrap;html=1;fillColor=#fff2cc;strokeColor=#d6b656;" vertex="1" parent="1">
          <mxGeometry x="100" y="440" width="10" height="10" as="geometry" />
        </mxCell>
      </root>
    </mxGraphModel>
  </diagram>
</mxfile>
